<?xml version="1.0" encoding="utf-8"?>
<svg width="150" height="40" viewBox="0 0 150 40" fill="none" xmlns="http://www.w3.org/2000/svg" xmlns:bx="https://boxy-svg.com">
  <defs>
    <style bx:fonts="Amaranth">@import url(https://fonts.googleapis.com/css2?family=Amaranth%3Aital%2Cwght%400%2C400%3B0%2C700%3B1%2C400%3B1%2C700&amp;display=swap);</style>
    <style bx:fonts="Abyssinica SIL">@import url(https://fonts.googleapis.com/css2?family=Abyssinica+SIL%3Aital%2Cwght%400%2C400&amp;display=swap);</style>
  </defs>
  <path d="M15.0003 17.7631C16.3083 17.7631 17.3687 16.7027 17.3687 15.3947C17.3687 14.0867 16.3083 13.0263 15.0003 13.0263C13.6922 13.0263 12.6318 14.0867 12.6318 15.3947C12.6318 16.7027 13.6922 17.7631 15.0003 17.7631Z" fill="#37A56E"/>
  <path d="M14.6057 31.579C15.9138 31.579 16.9741 30.5186 16.9741 29.2106C16.9741 27.9025 15.9138 26.8422 14.6057 26.8422C13.2977 26.8422 12.2373 27.9025 12.2373 29.2106C12.2373 30.5186 13.2977 31.579 14.6057 31.579Z" fill="#37A56E"/>
  <path d="M12.6313 11.4471C13.0673 11.4471 13.4207 11.0937 13.4207 10.6577C13.4207 10.2217 13.0673 9.86819 12.6313 9.86819C12.1953 9.86819 11.8418 10.2217 11.8418 10.6577C11.8418 11.0937 12.1953 11.4471 12.6313 11.4471Z" fill="#37A56E"/>
  <path d="M11.6448 22.5001C11.9719 22.5001 12.2369 22.235 12.2369 21.908C12.2369 21.581 11.9719 21.3159 11.6448 21.3159C11.3178 21.3159 11.0527 21.581 11.0527 21.908C11.0527 22.235 11.3178 22.5001 11.6448 22.5001Z" fill="#37A56E"/>
  <path d="M26.8421 23.0921C27.1691 23.0921 27.4342 22.827 27.4342 22.4999C27.4342 22.1729 27.1691 21.9078 26.8421 21.9078C26.5151 21.9078 26.25 22.1729 26.25 22.4999C26.25 22.827 26.5151 23.0921 26.8421 23.0921Z" fill="#37A56E"/>
  <path d="M21.1185 31.9738C21.4455 31.9738 21.7106 31.7087 21.7106 31.3817C21.7106 31.0547 21.4455 30.7896 21.1185 30.7896C20.7915 30.7896 20.5264 31.0547 20.5264 31.3817C20.5264 31.7087 20.7915 31.9738 21.1185 31.9738Z" fill="#37A56E"/>
  <path d="M19.7367 19.7368C20.1728 19.7368 20.5262 19.3833 20.5262 18.9473C20.5262 18.5113 20.1728 18.1578 19.7367 18.1578C19.3007 18.1578 18.9473 18.5113 18.9473 18.9473C18.9473 19.3833 19.3007 19.7368 19.7367 19.7368Z" fill="#37A56E"/>
  <path d="M16.7761 24.0791C17.5391 24.0791 18.1577 23.4605 18.1577 22.6975C18.1577 21.9344 17.5391 21.3159 16.7761 21.3159C16.0131 21.3159 15.3945 21.9344 15.3945 22.6975C15.3945 23.4605 16.0131 24.0791 16.7761 24.0791Z" fill="#37A56E"/>
  <path d="M25.2633 10.658C25.9173 10.658 26.4475 10.1278 26.4475 9.47382C26.4475 8.8198 25.9173 8.28961 25.2633 8.28961C24.6093 8.28961 24.0791 8.8198 24.0791 9.47382C24.0791 10.1278 24.6093 10.658 25.2633 10.658Z" fill="#37A56E"/>
  <path d="M24.7693 19.5394C26.5678 19.5394 28.0259 18.0814 28.0259 16.2829C28.0259 14.4843 26.5678 13.0263 24.7693 13.0263C22.9707 13.0263 21.5127 14.4843 21.5127 16.2829C21.5127 18.0814 22.9707 19.5394 24.7693 19.5394Z" fill="#37A56E"/>
  <path d="M19.1445 12.2367C20.1255 12.2367 20.9208 11.4415 20.9208 10.4604C20.9208 9.4794 20.1255 8.68411 19.1445 8.68411C18.1634 8.68411 17.3682 9.4794 17.3682 10.4604C17.3682 11.4415 18.1634 12.2367 19.1445 12.2367Z" fill="#37A56E"/>
  <path d="M23.4869 29.2107C25.1219 29.2107 26.4474 27.8852 26.4474 26.2501C26.4474 24.6151 25.1219 23.2896 23.4869 23.2896C21.8518 23.2896 20.5264 24.6151 20.5264 26.2501C20.5264 27.8852 21.8518 29.2107 23.4869 29.2107Z" fill="#37A56E"/>
  <path d="M3.11842 4.05381C2.44737 4.79394 2.10592 6.11828 2.10592 7.95973V14.4729C2.10592 16.6499 1.05197 17.5499 0 17.9032V21.1933C0.626628 21.3749 1.16946 21.771 1.53355 22.3124C1.92829 22.9045 2.10592 23.7946 2.10592 25.0064V31.5196C2.08781 32.3439 2.17603 33.1672 2.36842 33.9689C2.50096 34.5171 2.7621 35.0259 3.13026 35.4532C3.48068 35.8298 3.92789 36.1029 4.42303 36.2426C5.11971 36.4373 5.84126 36.5284 6.56447 36.513H8.88158V33.2643H8.77303C8.32104 33.2727 7.86921 33.2403 7.42303 33.1676C7.04177 33.1101 6.68753 32.9364 6.40855 32.6703C6.14724 32.392 5.97655 32.041 5.91908 31.6637C5.84782 31.2505 5.81544 30.8316 5.82237 30.4124V24.6709C5.82714 24.1358 5.79549 23.601 5.72763 23.0703C5.67839 22.6863 5.57055 22.3123 5.4079 21.961C5.25399 21.639 5.05016 21.3432 4.80395 21.0847C4.49733 20.7728 4.15634 20.4967 3.7875 20.2617L3.03553 19.7643L3.77171 19.2433C4.14834 18.9806 4.50703 18.6932 4.84539 18.3828C5.08693 18.1586 5.28382 17.8907 5.42566 17.5933C5.57765 17.2563 5.67811 16.8983 5.72368 16.5314C5.79448 15.9612 5.82613 15.3869 5.81842 14.8124V9.06105C5.81262 8.6305 5.84697 8.20035 5.92105 7.77618C5.98168 7.3881 6.16415 7.02936 6.44211 6.75184C6.738 6.49046 7.10754 6.32706 7.5 6.28407C7.93395 6.22914 8.37117 6.20408 8.80855 6.20907H8.88158V2.96039H6.66711C4.97171 2.96039 3.77763 3.32749 3.11842 4.05381Z" fill="#262933"/>
  <path d="M37.3675 14.4675V7.95433C37.3675 6.10301 37.026 4.79643 36.355 4.04841C35.6839 3.30038 34.5017 2.95499 32.8023 2.95499H30.5918V6.20959H30.6668C31.1042 6.2046 31.5414 6.22966 31.9753 6.28459C32.3678 6.32758 32.7373 6.49098 33.0332 6.75235C33.3105 7.03015 33.4922 7.38886 33.5523 7.7767C33.6244 8.20105 33.6568 8.6312 33.649 9.06157V14.8129C33.6413 15.3874 33.673 15.9618 33.7438 16.532C33.7908 16.8984 33.8926 17.2557 34.0457 17.5918C34.1876 17.8893 34.3845 18.1571 34.626 18.3813C34.9644 18.6917 35.3231 18.9792 35.6997 19.2418L36.4359 19.7629L35.6839 20.2603C35.3151 20.4953 34.9741 20.7714 34.6675 21.0833C34.4212 21.3417 34.2174 21.6375 34.0635 21.9596C33.9009 22.3108 33.793 22.6849 33.7438 23.0688C33.6759 23.5996 33.6443 24.1344 33.649 24.6695V30.4208C33.656 30.84 33.6236 31.2589 33.5523 31.6721C33.5051 32.0545 33.3314 32.4102 33.059 32.6827C32.7865 32.9552 32.4308 33.1288 32.0484 33.176C31.6022 33.2487 31.1504 33.2811 30.6984 33.2728H30.5918V36.5135H32.9089C33.6299 36.5296 34.3494 36.4399 35.0444 36.2471C35.5396 36.1074 35.9868 35.8343 36.3372 35.4576C36.7054 35.0304 36.9665 34.5216 37.099 33.9734C37.2939 33.17 37.3841 32.3447 37.3675 31.5181V25.005C37.3675 23.7931 37.555 22.9109 37.9398 22.3109C38.3039 21.7695 38.8468 21.3734 39.4734 21.1918V17.9037C38.4214 17.5504 37.3675 16.6504 37.3675 14.4675Z" fill="#262933"/>
  <text style="fill: rgb(51, 51, 51); font-family: &quot;Abyssinica SIL&quot;; font-size: 34px; white-space: pre;"><tspan style="fill: rgb(16, 126, 75); font-weight: 700;" x="42.272" y="31.036">VAP</tspan><tspan style="fill: rgb(44, 44, 44);">V3</tspan></text>
  <text style="fill: rgb(51, 51, 51); font-family: Amaranth; font-size: 4.6px; white-space: pre;" x="127.853" y="52.301">
</text>
  <text style="white-space: pre; fill: rgb(51, 51, 51); font-family: Arial, sans-serif; font-size: 4.6px;" x="59.281" y="69.075">
</text>
  <text style="white-space: pre; fill: rgb(51, 51, 51); font-family: Arial, sans-serif; font-size: 2.3px;" x="119.484" y="52.633">
</text>
  <text style="white-space: pre; fill: rgb(51, 51, 51); font-family: Arial, sans-serif; font-size: 5.5px;" x="29.118" y="70.28">
</text>
  <text style="white-space: pre; fill: rgb(51, 51, 51); font-family: Arial, sans-serif; font-size: 5.5px;" x="54.562" y="70.28">
</text>
  <text style="white-space: pre; fill: rgb(51, 51, 51); font-family: Arial, sans-serif; font-size: 5.5px;" x="4.463" y="62.193"> </text>
  <text style="fill: rgb(51, 51, 51); font-family: Arial, sans-serif; font-size: 19px; white-space: pre;" x="211.564" y="-12.166">
</text>
  <text style="white-space: pre; fill: rgb(51, 51, 51); font-family: Arial, sans-serif; font-size: 5.5px;" x="220.242" y="46.611">
</text>
</svg>